# xmcd
#
# Track frame offsets: 
#        150
#        19404
#        37794
#        52073
#        70009
#        87261
#        101622
#        119974
#        143857
#        160184
#        180595
#        195883
#        216036
#        236187
#        254785
#        272251
#        285612
#
# Disc length: 4120 seconds
#
# Revision: 0
# Processed by: cddbd v1.5.2PL0 Copyright (c) Steve Scherf et al.
# Submitted via: ExactAudioCopy v0.99pb4
#
DISCID=f8101611
DTITLE=All About Eve - Return to Eden, Vol. 1: The Early Recordings 
DYEAR=2002
DGENRE=Alternative Rock
TTITLE0=D For Desire
TTITLE1=Don't Follow Me (March Hare)
TTITLE2=Suppertime
TTITLE3=End Of The Day
TTITLE4=Love Leads Nowhere
TTITLE5=In The Clouds (first version)
TTITLE6=Appletree Man (demo)
TTITLE7=Shelter From The Rain (b-side)
TTITLE8=Every Angel (demo)
TTITLE9=In The Meadow (demo)
TTITLE10=Our Summer (single)
TTITLE11=Lady Moonlight (b-side)
TTITLE12=Our Summer (edtended mix)
TTITLE13=Flowers In Our Hair (single)
TTITLE14=Paradise (b-side)
TTITLE15=Devil Woman (b-side)
TTITLE16=Flowers In Our Hair (extended mix)
EXTD=
EXTT0=
EXTT1=
EXTT2=
EXTT3=
EXTT4=
EXTT5=
EXTT6=
EXTT7=
EXTT8=
EXTT9=
EXTT10=
EXTT11=
EXTT12=
EXTT13=
EXTT14=
EXTT15=
EXTT16=
PLAYORDER=
